<mxfile host="app.diagrams.net" modified="2024-01-16T16:16:31.826Z" agent="Mozilla/5.0 (Windows NT 10.0; Win64; x64) AppleWebKit/537.36 (KHTML, like Gecko) Chrome/120.0.0.0 Safari/537.36 OPR/106.0.0.0" etag="uLAcqDrhUnS6WG7sZRNE" version="22.1.18" type="google">
  <diagram id="C5RBs43oDa-KdzZeNtuy" name="Page-1">
    <mxGraphModel grid="1" page="1" gridSize="10" guides="1" tooltips="1" connect="1" arrows="1" fold="1" pageScale="1" pageWidth="827" pageHeight="1169" math="0" shadow="0">
      <root>
        <mxCell id="WIyWlLk6GJQsqaUBKTNV-0" />
        <mxCell id="WIyWlLk6GJQsqaUBKTNV-1" parent="WIyWlLk6GJQsqaUBKTNV-0" />
        <mxCell id="RopwlDlaLIUkfCrEkKeH-0" value="&lt;font style=&quot;font-size: 14px;&quot;&gt;username&amp;nbsp;&lt;/font&gt;" style="ellipse;whiteSpace=wrap;html=1;" vertex="1" parent="WIyWlLk6GJQsqaUBKTNV-1">
          <mxGeometry x="240" y="90" width="170" height="60" as="geometry" />
        </mxCell>
        <mxCell id="RopwlDlaLIUkfCrEkKeH-1" value="&lt;span style=&quot;font-size: 14px;&quot;&gt;password&amp;nbsp;&lt;/span&gt;" style="ellipse;whiteSpace=wrap;html=1;" vertex="1" parent="WIyWlLk6GJQsqaUBKTNV-1">
          <mxGeometry x="510" y="90" width="170" height="60" as="geometry" />
        </mxCell>
        <mxCell id="RopwlDlaLIUkfCrEkKeH-40" style="edgeStyle=orthogonalEdgeStyle;rounded=0;orthogonalLoop=1;jettySize=auto;html=1;exitX=0.5;exitY=1;exitDx=0;exitDy=0;entryX=0.5;entryY=0;entryDx=0;entryDy=0;" edge="1" parent="WIyWlLk6GJQsqaUBKTNV-1" source="RopwlDlaLIUkfCrEkKeH-2" target="RopwlDlaLIUkfCrEkKeH-3">
          <mxGeometry relative="1" as="geometry" />
        </mxCell>
        <mxCell id="RopwlDlaLIUkfCrEkKeH-2" value="&lt;font size=&quot;3&quot;&gt;administrator&amp;nbsp;&lt;/font&gt;" style="rounded=1;whiteSpace=wrap;html=1;" vertex="1" parent="WIyWlLk6GJQsqaUBKTNV-1">
          <mxGeometry x="359" y="230" width="190" height="60" as="geometry" />
        </mxCell>
        <mxCell id="RopwlDlaLIUkfCrEkKeH-41" style="edgeStyle=orthogonalEdgeStyle;rounded=0;orthogonalLoop=1;jettySize=auto;html=1;exitX=0.5;exitY=1;exitDx=0;exitDy=0;entryX=0.5;entryY=0;entryDx=0;entryDy=0;" edge="1" parent="WIyWlLk6GJQsqaUBKTNV-1" source="RopwlDlaLIUkfCrEkKeH-3" target="RopwlDlaLIUkfCrEkKeH-4">
          <mxGeometry relative="1" as="geometry" />
        </mxCell>
        <mxCell id="RopwlDlaLIUkfCrEkKeH-3" value="&lt;font size=&quot;3&quot;&gt;adds&lt;/font&gt;" style="rhombus;whiteSpace=wrap;html=1;" vertex="1" parent="WIyWlLk6GJQsqaUBKTNV-1">
          <mxGeometry x="414" y="370" width="80" height="80" as="geometry" />
        </mxCell>
        <mxCell id="RopwlDlaLIUkfCrEkKeH-42" style="edgeStyle=orthogonalEdgeStyle;rounded=0;orthogonalLoop=1;jettySize=auto;html=1;exitX=0.5;exitY=1;exitDx=0;exitDy=0;entryX=0.5;entryY=0;entryDx=0;entryDy=0;" edge="1" parent="WIyWlLk6GJQsqaUBKTNV-1" source="RopwlDlaLIUkfCrEkKeH-4" target="RopwlDlaLIUkfCrEkKeH-14">
          <mxGeometry relative="1" as="geometry" />
        </mxCell>
        <mxCell id="RopwlDlaLIUkfCrEkKeH-4" value="&lt;font size=&quot;3&quot;&gt;student&amp;nbsp;&lt;/font&gt;" style="rounded=1;whiteSpace=wrap;html=1;" vertex="1" parent="WIyWlLk6GJQsqaUBKTNV-1">
          <mxGeometry x="359" y="510" width="190" height="60" as="geometry" />
        </mxCell>
        <mxCell id="RopwlDlaLIUkfCrEkKeH-5" value="&lt;font style=&quot;font-size: 14px;&quot;&gt;name&lt;/font&gt;" style="ellipse;whiteSpace=wrap;html=1;" vertex="1" parent="WIyWlLk6GJQsqaUBKTNV-1">
          <mxGeometry x="80" y="330" width="170" height="60" as="geometry" />
        </mxCell>
        <mxCell id="RopwlDlaLIUkfCrEkKeH-6" value="&lt;span style=&quot;font-size: 14px;&quot;&gt;address&amp;nbsp;&lt;/span&gt;" style="ellipse;whiteSpace=wrap;html=1;" vertex="1" parent="WIyWlLk6GJQsqaUBKTNV-1">
          <mxGeometry x="80" y="450" width="170" height="60" as="geometry" />
        </mxCell>
        <mxCell id="RopwlDlaLIUkfCrEkKeH-7" value="&lt;span style=&quot;font-size: 14px;&quot;&gt;class&lt;br&gt;&lt;/span&gt;" style="ellipse;whiteSpace=wrap;html=1;" vertex="1" parent="WIyWlLk6GJQsqaUBKTNV-1">
          <mxGeometry x="80" y="550" width="170" height="60" as="geometry" />
        </mxCell>
        <mxCell id="RopwlDlaLIUkfCrEkKeH-8" value="&lt;span style=&quot;font-size: 14px;&quot;&gt;category&amp;nbsp;&lt;br&gt;&lt;/span&gt;" style="ellipse;whiteSpace=wrap;html=1;" vertex="1" parent="WIyWlLk6GJQsqaUBKTNV-1">
          <mxGeometry x="80" y="670" width="170" height="60" as="geometry" />
        </mxCell>
        <mxCell id="RopwlDlaLIUkfCrEkKeH-9" value="&lt;span style=&quot;font-size: 14px;&quot;&gt;gander&amp;nbsp;&lt;/span&gt;" style="ellipse;whiteSpace=wrap;html=1;" vertex="1" parent="WIyWlLk6GJQsqaUBKTNV-1">
          <mxGeometry x="610" y="330" width="170" height="60" as="geometry" />
        </mxCell>
        <mxCell id="RopwlDlaLIUkfCrEkKeH-10" value="&lt;span style=&quot;font-size: 14px;&quot;&gt;mobile no&lt;/span&gt;" style="ellipse;whiteSpace=wrap;html=1;" vertex="1" parent="WIyWlLk6GJQsqaUBKTNV-1">
          <mxGeometry x="630" y="440" width="170" height="60" as="geometry" />
        </mxCell>
        <mxCell id="RopwlDlaLIUkfCrEkKeH-11" value="&lt;span style=&quot;font-size: 14px;&quot;&gt;academic year&amp;nbsp;&lt;/span&gt;" style="ellipse;whiteSpace=wrap;html=1;" vertex="1" parent="WIyWlLk6GJQsqaUBKTNV-1">
          <mxGeometry x="630" y="550" width="170" height="60" as="geometry" />
        </mxCell>
        <mxCell id="RopwlDlaLIUkfCrEkKeH-12" value="&lt;font style=&quot;font-size: 14px;&quot;&gt;branch&lt;br&gt;&lt;/font&gt;" style="ellipse;whiteSpace=wrap;html=1;" vertex="1" parent="WIyWlLk6GJQsqaUBKTNV-1">
          <mxGeometry x="630" y="670" width="170" height="60" as="geometry" />
        </mxCell>
        <mxCell id="RopwlDlaLIUkfCrEkKeH-13" value="&lt;font size=&quot;3&quot;&gt;fees&lt;br&gt;&lt;/font&gt;" style="rounded=1;whiteSpace=wrap;html=1;" vertex="1" parent="WIyWlLk6GJQsqaUBKTNV-1">
          <mxGeometry x="359" y="840" width="190" height="60" as="geometry" />
        </mxCell>
        <mxCell id="RopwlDlaLIUkfCrEkKeH-43" style="edgeStyle=orthogonalEdgeStyle;rounded=0;orthogonalLoop=1;jettySize=auto;html=1;exitX=0.5;exitY=1;exitDx=0;exitDy=0;entryX=0.5;entryY=0;entryDx=0;entryDy=0;" edge="1" parent="WIyWlLk6GJQsqaUBKTNV-1" source="RopwlDlaLIUkfCrEkKeH-14" target="RopwlDlaLIUkfCrEkKeH-13">
          <mxGeometry relative="1" as="geometry" />
        </mxCell>
        <mxCell id="RopwlDlaLIUkfCrEkKeH-14" value="&lt;font size=&quot;3&quot;&gt;pays&lt;/font&gt;" style="rhombus;whiteSpace=wrap;html=1;" vertex="1" parent="WIyWlLk6GJQsqaUBKTNV-1">
          <mxGeometry x="414" y="650" width="80" height="80" as="geometry" />
        </mxCell>
        <mxCell id="RopwlDlaLIUkfCrEkKeH-15" value="&lt;span style=&quot;font-size: 14px;&quot;&gt;name&lt;br&gt;&lt;/span&gt;" style="ellipse;whiteSpace=wrap;html=1;" vertex="1" parent="WIyWlLk6GJQsqaUBKTNV-1">
          <mxGeometry x="70" y="860" width="170" height="60" as="geometry" />
        </mxCell>
        <mxCell id="RopwlDlaLIUkfCrEkKeH-17" value="&lt;span style=&quot;font-size: 14px;&quot;&gt;admission fee paid&lt;br&gt;&lt;/span&gt;" style="ellipse;whiteSpace=wrap;html=1;" vertex="1" parent="WIyWlLk6GJQsqaUBKTNV-1">
          <mxGeometry x="80" y="980" width="170" height="60" as="geometry" />
        </mxCell>
        <mxCell id="RopwlDlaLIUkfCrEkKeH-18" value="&lt;span style=&quot;font-size: 14px;&quot;&gt;other fees&lt;br&gt;&lt;/span&gt;" style="ellipse;whiteSpace=wrap;html=1;" vertex="1" parent="WIyWlLk6GJQsqaUBKTNV-1">
          <mxGeometry x="185" y="1109" width="170" height="60" as="geometry" />
        </mxCell>
        <mxCell id="RopwlDlaLIUkfCrEkKeH-19" value="&lt;font style=&quot;font-size: 14px;&quot;&gt;date of receipt&amp;nbsp;&lt;/font&gt;&lt;span style=&quot;font-size: 14px;&quot;&gt;&lt;br&gt;&lt;/span&gt;" style="ellipse;whiteSpace=wrap;html=1;" vertex="1" parent="WIyWlLk6GJQsqaUBKTNV-1">
          <mxGeometry x="369" y="1150" width="170" height="60" as="geometry" />
        </mxCell>
        <mxCell id="RopwlDlaLIUkfCrEkKeH-20" value="&lt;span style=&quot;font-size: 14px;&quot;&gt;monthly fees paid&lt;br&gt;&lt;/span&gt;" style="ellipse;whiteSpace=wrap;html=1;" vertex="1" parent="WIyWlLk6GJQsqaUBKTNV-1">
          <mxGeometry x="570" y="1109" width="170" height="60" as="geometry" />
        </mxCell>
        <mxCell id="RopwlDlaLIUkfCrEkKeH-21" value="&lt;span style=&quot;font-size: 14px;&quot;&gt;monthly fees paid&lt;br&gt;&lt;/span&gt;" style="ellipse;whiteSpace=wrap;html=1;" vertex="1" parent="WIyWlLk6GJQsqaUBKTNV-1">
          <mxGeometry x="690" y="980" width="170" height="60" as="geometry" />
        </mxCell>
        <mxCell id="RopwlDlaLIUkfCrEkKeH-22" value="&lt;span style=&quot;font-size: 14px;&quot;&gt;Receipt No&lt;br&gt;&lt;/span&gt;" style="ellipse;whiteSpace=wrap;html=1;" vertex="1" parent="WIyWlLk6GJQsqaUBKTNV-1">
          <mxGeometry x="690" y="860" width="170" height="60" as="geometry" />
        </mxCell>
        <mxCell id="RopwlDlaLIUkfCrEkKeH-23" value="" style="endArrow=none;html=1;rounded=0;exitX=0.5;exitY=1;exitDx=0;exitDy=0;entryX=0.25;entryY=0;entryDx=0;entryDy=0;" edge="1" parent="WIyWlLk6GJQsqaUBKTNV-1" source="RopwlDlaLIUkfCrEkKeH-0" target="RopwlDlaLIUkfCrEkKeH-2">
          <mxGeometry width="50" height="50" relative="1" as="geometry">
            <mxPoint x="490" y="150" as="sourcePoint" />
            <mxPoint x="540" y="100" as="targetPoint" />
          </mxGeometry>
        </mxCell>
        <mxCell id="RopwlDlaLIUkfCrEkKeH-24" value="" style="endArrow=none;html=1;rounded=0;exitX=0.5;exitY=1;exitDx=0;exitDy=0;entryX=0.75;entryY=0;entryDx=0;entryDy=0;" edge="1" parent="WIyWlLk6GJQsqaUBKTNV-1" source="RopwlDlaLIUkfCrEkKeH-1" target="RopwlDlaLIUkfCrEkKeH-2">
          <mxGeometry width="50" height="50" relative="1" as="geometry">
            <mxPoint x="510" y="140" as="sourcePoint" />
            <mxPoint x="653" y="220" as="targetPoint" />
          </mxGeometry>
        </mxCell>
        <mxCell id="RopwlDlaLIUkfCrEkKeH-25" value="" style="endArrow=none;html=1;rounded=0;exitX=0;exitY=0;exitDx=0;exitDy=0;entryX=1;entryY=0.5;entryDx=0;entryDy=0;" edge="1" parent="WIyWlLk6GJQsqaUBKTNV-1" source="RopwlDlaLIUkfCrEkKeH-4" target="RopwlDlaLIUkfCrEkKeH-5">
          <mxGeometry width="50" height="50" relative="1" as="geometry">
            <mxPoint x="605" y="160" as="sourcePoint" />
            <mxPoint x="503" y="240" as="targetPoint" />
          </mxGeometry>
        </mxCell>
        <mxCell id="RopwlDlaLIUkfCrEkKeH-26" value="" style="endArrow=none;html=1;rounded=0;exitX=0;exitY=0.25;exitDx=0;exitDy=0;entryX=1;entryY=0.5;entryDx=0;entryDy=0;" edge="1" parent="WIyWlLk6GJQsqaUBKTNV-1" source="RopwlDlaLIUkfCrEkKeH-4" target="RopwlDlaLIUkfCrEkKeH-6">
          <mxGeometry width="50" height="50" relative="1" as="geometry">
            <mxPoint x="369" y="520" as="sourcePoint" />
            <mxPoint x="260" y="370" as="targetPoint" />
          </mxGeometry>
        </mxCell>
        <mxCell id="RopwlDlaLIUkfCrEkKeH-27" value="" style="endArrow=none;html=1;rounded=0;exitX=0;exitY=0.5;exitDx=0;exitDy=0;entryX=1;entryY=0.5;entryDx=0;entryDy=0;" edge="1" parent="WIyWlLk6GJQsqaUBKTNV-1" source="RopwlDlaLIUkfCrEkKeH-4" target="RopwlDlaLIUkfCrEkKeH-7">
          <mxGeometry width="50" height="50" relative="1" as="geometry">
            <mxPoint x="369" y="535" as="sourcePoint" />
            <mxPoint x="260" y="490" as="targetPoint" />
          </mxGeometry>
        </mxCell>
        <mxCell id="RopwlDlaLIUkfCrEkKeH-28" value="" style="endArrow=none;html=1;rounded=0;exitX=0;exitY=1;exitDx=0;exitDy=0;entryX=1;entryY=0.5;entryDx=0;entryDy=0;" edge="1" parent="WIyWlLk6GJQsqaUBKTNV-1" source="RopwlDlaLIUkfCrEkKeH-4" target="RopwlDlaLIUkfCrEkKeH-8">
          <mxGeometry width="50" height="50" relative="1" as="geometry">
            <mxPoint x="369" y="550" as="sourcePoint" />
            <mxPoint x="260" y="590" as="targetPoint" />
          </mxGeometry>
        </mxCell>
        <mxCell id="RopwlDlaLIUkfCrEkKeH-29" value="" style="endArrow=none;html=1;rounded=0;exitX=0;exitY=0.5;exitDx=0;exitDy=0;entryX=1;entryY=0;entryDx=0;entryDy=0;" edge="1" parent="WIyWlLk6GJQsqaUBKTNV-1" source="RopwlDlaLIUkfCrEkKeH-9" target="RopwlDlaLIUkfCrEkKeH-4">
          <mxGeometry width="50" height="50" relative="1" as="geometry">
            <mxPoint x="369" y="580" as="sourcePoint" />
            <mxPoint x="260" y="710" as="targetPoint" />
          </mxGeometry>
        </mxCell>
        <mxCell id="RopwlDlaLIUkfCrEkKeH-30" value="" style="endArrow=none;html=1;rounded=0;exitX=0;exitY=0.5;exitDx=0;exitDy=0;entryX=1;entryY=0.25;entryDx=0;entryDy=0;" edge="1" parent="WIyWlLk6GJQsqaUBKTNV-1" source="RopwlDlaLIUkfCrEkKeH-10" target="RopwlDlaLIUkfCrEkKeH-4">
          <mxGeometry width="50" height="50" relative="1" as="geometry">
            <mxPoint x="620" y="370" as="sourcePoint" />
            <mxPoint x="559" y="520" as="targetPoint" />
          </mxGeometry>
        </mxCell>
        <mxCell id="RopwlDlaLIUkfCrEkKeH-31" value="" style="endArrow=none;html=1;rounded=0;entryX=1;entryY=0.5;entryDx=0;entryDy=0;exitX=0;exitY=0.5;exitDx=0;exitDy=0;" edge="1" parent="WIyWlLk6GJQsqaUBKTNV-1" source="RopwlDlaLIUkfCrEkKeH-11" target="RopwlDlaLIUkfCrEkKeH-4">
          <mxGeometry width="50" height="50" relative="1" as="geometry">
            <mxPoint x="620" y="570" as="sourcePoint" />
            <mxPoint x="559" y="535" as="targetPoint" />
          </mxGeometry>
        </mxCell>
        <mxCell id="RopwlDlaLIUkfCrEkKeH-32" value="" style="endArrow=none;html=1;rounded=0;entryX=1;entryY=0.75;entryDx=0;entryDy=0;exitX=0;exitY=0.5;exitDx=0;exitDy=0;" edge="1" parent="WIyWlLk6GJQsqaUBKTNV-1" source="RopwlDlaLIUkfCrEkKeH-12" target="RopwlDlaLIUkfCrEkKeH-4">
          <mxGeometry width="50" height="50" relative="1" as="geometry">
            <mxPoint x="640" y="590" as="sourcePoint" />
            <mxPoint x="559" y="550" as="targetPoint" />
          </mxGeometry>
        </mxCell>
        <mxCell id="RopwlDlaLIUkfCrEkKeH-33" value="" style="endArrow=none;html=1;rounded=0;exitX=0;exitY=0.25;exitDx=0;exitDy=0;entryX=1;entryY=0.5;entryDx=0;entryDy=0;" edge="1" parent="WIyWlLk6GJQsqaUBKTNV-1" source="RopwlDlaLIUkfCrEkKeH-13" target="RopwlDlaLIUkfCrEkKeH-15">
          <mxGeometry width="50" height="50" relative="1" as="geometry">
            <mxPoint x="369" y="580" as="sourcePoint" />
            <mxPoint x="260" y="710" as="targetPoint" />
          </mxGeometry>
        </mxCell>
        <mxCell id="RopwlDlaLIUkfCrEkKeH-34" value="" style="endArrow=none;html=1;rounded=0;exitX=0;exitY=1;exitDx=0;exitDy=0;entryX=1;entryY=0.5;entryDx=0;entryDy=0;" edge="1" parent="WIyWlLk6GJQsqaUBKTNV-1" source="RopwlDlaLIUkfCrEkKeH-13" target="RopwlDlaLIUkfCrEkKeH-17">
          <mxGeometry width="50" height="50" relative="1" as="geometry">
            <mxPoint x="369" y="880" as="sourcePoint" />
            <mxPoint x="255" y="960" as="targetPoint" />
          </mxGeometry>
        </mxCell>
        <mxCell id="RopwlDlaLIUkfCrEkKeH-35" value="" style="endArrow=none;html=1;rounded=0;exitX=0.25;exitY=1;exitDx=0;exitDy=0;entryX=0.5;entryY=0;entryDx=0;entryDy=0;" edge="1" parent="WIyWlLk6GJQsqaUBKTNV-1" source="RopwlDlaLIUkfCrEkKeH-13" target="RopwlDlaLIUkfCrEkKeH-18">
          <mxGeometry width="50" height="50" relative="1" as="geometry">
            <mxPoint x="369" y="910" as="sourcePoint" />
            <mxPoint x="265" y="1050" as="targetPoint" />
          </mxGeometry>
        </mxCell>
        <mxCell id="RopwlDlaLIUkfCrEkKeH-36" value="" style="endArrow=none;html=1;rounded=0;exitX=0.5;exitY=1;exitDx=0;exitDy=0;" edge="1" parent="WIyWlLk6GJQsqaUBKTNV-1" source="RopwlDlaLIUkfCrEkKeH-13" target="RopwlDlaLIUkfCrEkKeH-19">
          <mxGeometry width="50" height="50" relative="1" as="geometry">
            <mxPoint x="417" y="910" as="sourcePoint" />
            <mxPoint x="480" y="1140" as="targetPoint" />
          </mxGeometry>
        </mxCell>
        <mxCell id="RopwlDlaLIUkfCrEkKeH-37" value="" style="endArrow=none;html=1;rounded=0;exitX=0.75;exitY=1;exitDx=0;exitDy=0;entryX=0.5;entryY=0;entryDx=0;entryDy=0;" edge="1" parent="WIyWlLk6GJQsqaUBKTNV-1" source="RopwlDlaLIUkfCrEkKeH-13" target="RopwlDlaLIUkfCrEkKeH-20">
          <mxGeometry width="50" height="50" relative="1" as="geometry">
            <mxPoint x="464" y="910" as="sourcePoint" />
            <mxPoint x="487" y="1160" as="targetPoint" />
          </mxGeometry>
        </mxCell>
        <mxCell id="RopwlDlaLIUkfCrEkKeH-38" value="" style="endArrow=none;html=1;rounded=0;exitX=1;exitY=1;exitDx=0;exitDy=0;entryX=0;entryY=0.5;entryDx=0;entryDy=0;" edge="1" parent="WIyWlLk6GJQsqaUBKTNV-1" source="RopwlDlaLIUkfCrEkKeH-13" target="RopwlDlaLIUkfCrEkKeH-21">
          <mxGeometry width="50" height="50" relative="1" as="geometry">
            <mxPoint x="512" y="910" as="sourcePoint" />
            <mxPoint x="640" y="1030" as="targetPoint" />
          </mxGeometry>
        </mxCell>
        <mxCell id="RopwlDlaLIUkfCrEkKeH-39" value="" style="endArrow=none;html=1;rounded=0;exitX=1;exitY=0.25;exitDx=0;exitDy=0;entryX=0;entryY=0.5;entryDx=0;entryDy=0;" edge="1" parent="WIyWlLk6GJQsqaUBKTNV-1" source="RopwlDlaLIUkfCrEkKeH-13" target="RopwlDlaLIUkfCrEkKeH-22">
          <mxGeometry width="50" height="50" relative="1" as="geometry">
            <mxPoint x="512" y="910" as="sourcePoint" />
            <mxPoint x="665" y="1119" as="targetPoint" />
          </mxGeometry>
        </mxCell>
      </root>
    </mxGraphModel>
  </diagram>
</mxfile>
